<?xml version="1.0" encoding="utf-8"?>
<!-- Generator: Adobe Illustrator 26.0.1, SVG Export Plug-In . SVG Version: 6.00 Build 0)  -->
<svg version="1.1" id="Layer_1" xmlns="http://www.w3.org/2000/svg" xmlns:xlink="http://www.w3.org/1999/xlink" x="0px" y="0px"
	 viewBox="0 0 180 252" style="enable-background:new 0 0 180 252;" xml:space="preserve">
<style type="text/css">
	.st0{opacity:0.4;fill:url(#SVGID_1_);}
	.st1{opacity:0.4;fill:url(#SVGID_00000033365006464080770350000017396324372726870172_);}
	.st2{fill:none;stroke:#8ABDFF;stroke-width:4;stroke-miterlimit:3;}
	.st3{opacity:0.4;fill:url(#SVGID_00000176756883416553371830000007908363224962548379_);}
	.st4{fill:#E4EBF5;}
	.st5{opacity:0.4;fill:#A0AFD2;}
</style>
<linearGradient id="SVGID_1_" gradientUnits="userSpaceOnUse" x1="0.3355" y1="123.3548" x2="179.5355" y2="123.3548" gradientTransform="matrix(-1 0 0 -1 179.9355 249.3548)">
	<stop  offset="0" style="stop-color:#E4EBF5"/>
	<stop  offset="1" style="stop-color:#C6D9EB"/>
</linearGradient>
<path class="st0" d="M9.4,0.3l161.2,0.1c5,0,9,4,9,9v233.2c0,5-4,9-9,9H9.4c-5,0-9-4-9-9V9.5C0.4,4.5,4.4,0.3,9.4,0.3z"/>
<linearGradient id="SVGID_00000003804085257743385810000006336465946844572051_" gradientUnits="userSpaceOnUse" x1="179.6" y1="126" x2="0.4" y2="126">
	<stop  offset="0" style="stop-color:#FFFFFF"/>
	<stop  offset="1" style="stop-color:#A0AFD2"/>
</linearGradient>
<path style="opacity:0.4;fill:url(#SVGID_00000003804085257743385810000006336465946844572051_);" d="M170.6,251.6L9.4,251.5
	c-5,0-9-4-9-9V9.3c0-5,4-9,9-9h161.2c5,0,9,4,9,9v233.2C179.6,247.5,175.6,251.6,170.6,251.6z"/>
<text transform="matrix(1 0 0 1 443.002 0.375)" style="font-family:'JuniperStd'; font-size:24.288px;">S&amp;CO TM LLC</text>
<path class="st2" d="M448,516.1l378-227l-363,303l326-198L426,503.6c0,0,489,57.5,486,58.5s-336-320-336-320l-14,440l-16-432
	c0,0,94,417,94,418s19-416,19-416l41,384l-5-353l-40,373l-45-445"/>
<linearGradient id="SVGID_00000060005410679609671510000016974396638644808875_" gradientUnits="userSpaceOnUse" x1="6.9789" y1="126" x2="173.0211" y2="126">
	<stop  offset="0" style="stop-color:#FFFFFF"/>
	<stop  offset="1" style="stop-color:#A0AFD2"/>
</linearGradient>
<path style="opacity:0.4;fill:url(#SVGID_00000060005410679609671510000016974396638644808875_);" d="M15.4,16.2L15.4,16.2
	L15.4,16.2 M15.3,7.7c-4.6,0-8.3,3.9-8.3,8.6v219.5c0,4.7,3.7,8.5,8.3,8.5h149.4c4.6,0,8.3-3.8,8.3-8.5V16.3c0-4.7-3.7-8.5-8.3-8.5
	L15.3,7.7L15.3,7.7z"/>
<path class="st4" d="M232.1,55.5L232.1,55.5L232.1,55.5 M232.1,47c-4.6,0-8.3,3.9-8.3,8.6V275c0,4.7,3.7,8.5,8.3,8.5h149.4
	c4.6,0,8.3-3.8,8.3-8.5V55.6c0-4.7-3.7-8.5-8.3-8.5L232.1,47L232.1,47z"/>
<path class="st5" d="M170.6,251.6L9.4,251.5c-5,0-9-4-9-9V9.3c0-5,4-9,9-9h161.2c5,0,9,4,9,9v233.2
	C179.6,247.5,175.6,251.6,170.6,251.6z"/>
</svg>
